<svg id="visual" viewBox="0 0 900 600" width="900" height="600" xmlns="http://www.w3.org/2000/svg" xmlns:xlink="http://www.w3.org/1999/xlink" version="1.1"><rect x="0" y="0" width="900" height="600" fill="#001220"></rect><path d="M0 156L16.7 157.5C33.3 159 66.7 162 100 164C133.3 166 166.7 167 200 161.5C233.3 156 266.7 144 300 140C333.3 136 366.7 140 400 143.3C433.3 146.7 466.7 149.3 500 153.5C533.3 157.7 566.7 163.3 600 157.3C633.3 151.3 666.7 133.7 700 134.3C733.3 135 766.7 154 800 154.3C833.3 154.7 866.7 136.3 883.3 127.2L900 118L900 0L883.3 0C866.7 0 833.3 0 800 0C766.7 0 733.3 0 700 0C666.7 0 633.3 0 600 0C566.7 0 533.3 0 500 0C466.7 0 433.3 0 400 0C366.7 0 333.3 0 300 0C266.7 0 233.3 0 200 0C166.7 0 133.3 0 100 0C66.7 0 33.3 0 16.7 0L0 0Z" fill="#c62368"></path><path d="M0 132L16.7 128.5C33.3 125 66.7 118 100 110.5C133.3 103 166.7 95 200 104.5C233.3 114 266.7 141 300 149.7C333.3 158.3 366.7 148.7 400 137.8C433.3 127 466.7 115 500 115C533.3 115 566.7 127 600 138.5C633.3 150 666.7 161 700 151C733.3 141 766.7 110 800 96.5C833.3 83 866.7 87 883.3 89L900 91L900 0L883.3 0C866.7 0 833.3 0 800 0C766.7 0 733.3 0 700 0C666.7 0 633.3 0 600 0C566.7 0 533.3 0 500 0C466.7 0 433.3 0 400 0C366.7 0 333.3 0 300 0C266.7 0 233.3 0 200 0C166.7 0 133.3 0 100 0C66.7 0 33.3 0 16.7 0L0 0Z" fill="#da3f67"></path><path d="M0 47L16.7 57.5C33.3 68 66.7 89 100 92.5C133.3 96 166.7 82 200 75.7C233.3 69.3 266.7 70.7 300 72C333.3 73.3 366.7 74.7 400 77C433.3 79.3 466.7 82.7 500 80.3C533.3 78 566.7 70 600 72C633.3 74 666.7 86 700 83.5C733.3 81 766.7 64 800 59.2C833.3 54.3 866.7 61.7 883.3 65.3L900 69L900 0L883.3 0C866.7 0 833.3 0 800 0C766.7 0 733.3 0 700 0C666.7 0 633.3 0 600 0C566.7 0 533.3 0 500 0C466.7 0 433.3 0 400 0C366.7 0 333.3 0 300 0C266.7 0 233.3 0 200 0C166.7 0 133.3 0 100 0C66.7 0 33.3 0 16.7 0L0 0Z" fill="#eb5967"></path><path d="M0 39L16.7 42.3C33.3 45.7 66.7 52.3 100 52C133.3 51.7 166.7 44.3 200 47.5C233.3 50.7 266.7 64.3 300 62.5C333.3 60.7 366.7 43.3 400 41.3C433.3 39.3 466.7 52.7 500 57.7C533.3 62.7 566.7 59.3 600 56.3C633.3 53.3 666.7 50.7 700 44C733.3 37.3 766.7 26.7 800 27.8C833.3 29 866.7 42 883.3 48.5L900 55L900 0L883.3 0C866.7 0 833.3 0 800 0C766.7 0 733.3 0 700 0C666.7 0 633.3 0 600 0C566.7 0 533.3 0 500 0C466.7 0 433.3 0 400 0C366.7 0 333.3 0 300 0C266.7 0 233.3 0 200 0C166.7 0 133.3 0 100 0C66.7 0 33.3 0 16.7 0L0 0Z" fill="#fa7268"></path></svg>